<svg width="156" height="30" viewBox="0 0 156 30" fill="none" xmlns="http://www.w3.org/2000/svg">
<path d="M41.1382 15.3C41.1382 13.7893 41.4755 12.44 42.1502 11.252C42.8395 10.0493 43.7708 9.118 44.9442 8.458C46.1322 7.78333 47.4595 7.446 48.9262 7.446C50.6422 7.446 52.1455 7.886 53.4362 8.766C54.7268 9.646 55.6288 10.8633 56.1422 12.418H52.6002C52.2482 11.6847 51.7495 11.1347 51.1042 10.768C50.4735 10.4013 49.7402 10.218 48.9042 10.218C48.0095 10.218 47.2102 10.4307 46.5062 10.856C45.8168 11.2667 45.2742 11.8533 44.8782 12.616C44.4968 13.3787 44.3062 14.2733 44.3062 15.3C44.3062 16.312 44.4968 17.2067 44.8782 17.984C45.2742 18.7467 45.8168 19.3407 46.5062 19.766C47.2102 20.1767 48.0095 20.382 48.9042 20.382C49.7402 20.382 50.4735 20.1987 51.1042 19.832C51.7495 19.4507 52.2482 18.8933 52.6002 18.16H56.1422C55.6288 19.7293 54.7268 20.954 53.4362 21.834C52.1602 22.6993 50.6568 23.132 48.9262 23.132C47.4595 23.132 46.1322 22.802 44.9442 22.142C43.7708 21.4673 42.8395 20.536 42.1502 19.348C41.4755 18.16 41.1382 16.8107 41.1382 15.3ZM61.8529 12.704C62.2489 12.0587 62.7622 11.5527 63.3929 11.186C64.0382 10.8193 64.7715 10.636 65.5929 10.636V13.87H64.7789C63.8109 13.87 63.0775 14.0973 62.5789 14.552C62.0949 15.0067 61.8529 15.7987 61.8529 16.928V23H58.7729V10.812H61.8529V12.704ZM69.2294 9.36C68.6867 9.36 68.2321 9.19133 67.8654 8.854C67.5134 8.502 67.3374 8.06933 67.3374 7.556C67.3374 7.04267 67.5134 6.61733 67.8654 6.28C68.2321 5.928 68.6867 5.752 69.2294 5.752C69.7721 5.752 70.2194 5.928 70.5714 6.28C70.9381 6.61733 71.1214 7.04267 71.1214 7.556C71.1214 8.06933 70.9381 8.502 70.5714 8.854C70.2194 9.19133 69.7721 9.36 69.2294 9.36ZM70.7474 10.812V23H67.6674V10.812H70.7474ZM76.8705 12.572C77.2665 12.0147 77.8091 11.5527 78.4985 11.186C79.2025 10.8047 80.0018 10.614 80.8965 10.614C81.9378 10.614 82.8765 10.8707 83.7125 11.384C84.5631 11.8973 85.2305 12.6307 85.7145 13.584C86.2131 14.5227 86.4625 15.6153 86.4625 16.862C86.4625 18.1087 86.2131 19.216 85.7145 20.184C85.2305 21.1373 84.5631 21.878 83.7125 22.406C82.8765 22.934 81.9378 23.198 80.8965 23.198C80.0018 23.198 79.2098 23.0147 78.5205 22.648C77.8458 22.2813 77.2958 21.8193 76.8705 21.262V28.808H73.7905V10.812H76.8705V12.572ZM83.3165 16.862C83.3165 16.1287 83.1625 15.498 82.8545 14.97C82.5611 14.4273 82.1651 14.0167 81.6665 13.738C81.1825 13.4593 80.6545 13.32 80.0825 13.32C79.5251 13.32 78.9971 13.4667 78.4985 13.76C78.0145 14.0387 77.6185 14.4493 77.3105 14.992C77.0171 15.5347 76.8705 16.1727 76.8705 16.906C76.8705 17.6393 77.0171 18.2773 77.3105 18.82C77.6185 19.3627 78.0145 19.7807 78.4985 20.074C78.9971 20.3527 79.5251 20.492 80.0825 20.492C80.6545 20.492 81.1825 20.3453 81.6665 20.052C82.1651 19.7587 82.5611 19.3407 82.8545 18.798C83.1625 18.2553 83.3165 17.61 83.3165 16.862ZM92.2866 13.342V19.238C92.2866 19.6487 92.382 19.9493 92.5726 20.14C92.778 20.316 93.1153 20.404 93.5846 20.404H95.0146V23H93.0786C90.4826 23 89.1846 21.7387 89.1846 19.216V13.342H87.7326V10.812H89.1846V7.798H92.2866V10.812H95.0146V13.342H92.2866ZM96.4379 16.906C96.4379 15.6447 96.6946 14.5447 97.2079 13.606C97.7212 12.6527 98.4326 11.9193 99.3419 11.406C100.251 10.878 101.293 10.614 102.466 10.614C103.977 10.614 105.223 10.9953 106.206 11.758C107.203 12.506 107.871 13.562 108.208 14.926H104.886C104.71 14.398 104.409 13.9873 103.984 13.694C103.573 13.386 103.06 13.232 102.444 13.232C101.564 13.232 100.867 13.5547 100.354 14.2C99.8406 14.8307 99.5839 15.7327 99.5839 16.906C99.5839 18.0647 99.8406 18.9667 100.354 19.612C100.867 20.2427 101.564 20.558 102.444 20.558C103.691 20.558 104.505 20.0007 104.886 18.886H108.208C107.871 20.206 107.203 21.2547 106.206 22.032C105.209 22.8093 103.962 23.198 102.466 23.198C101.293 23.198 100.251 22.9413 99.3419 22.428C98.4326 21.9 97.7212 21.1667 97.2079 20.228C96.6946 19.2747 96.4379 18.1673 96.4379 16.906ZM115.876 23.198C114.703 23.198 113.647 22.9413 112.708 22.428C111.77 21.9 111.029 21.1593 110.486 20.206C109.958 19.2527 109.694 18.1527 109.694 16.906C109.694 15.6593 109.966 14.5593 110.508 13.606C111.066 12.6527 111.821 11.9193 112.774 11.406C113.728 10.878 114.791 10.614 115.964 10.614C117.138 10.614 118.201 10.878 119.154 11.406C120.108 11.9193 120.856 12.6527 121.398 13.606C121.956 14.5593 122.234 15.6593 122.234 16.906C122.234 18.1527 121.948 19.2527 121.376 20.206C120.819 21.1593 120.056 21.9 119.088 22.428C118.135 22.9413 117.064 23.198 115.876 23.198ZM115.876 20.514C116.434 20.514 116.954 20.382 117.438 20.118C117.937 19.8393 118.333 19.4287 118.626 18.886C118.92 18.3433 119.066 17.6833 119.066 16.906C119.066 15.7473 118.758 14.86 118.142 14.244C117.541 13.6133 116.8 13.298 115.92 13.298C115.04 13.298 114.3 13.6133 113.698 14.244C113.112 14.86 112.818 15.7473 112.818 16.906C112.818 18.0647 113.104 18.9593 113.676 19.59C114.263 20.206 114.996 20.514 115.876 20.514ZM126.056 9.36C125.513 9.36 125.058 9.19133 124.692 8.854C124.34 8.502 124.164 8.06933 124.164 7.556C124.164 7.04267 124.34 6.61733 124.692 6.28C125.058 5.928 125.513 5.752 126.056 5.752C126.598 5.752 127.046 5.928 127.398 6.28C127.764 6.61733 127.948 7.04267 127.948 7.556C127.948 8.06933 127.764 8.502 127.398 8.854C127.046 9.19133 126.598 9.36 126.056 9.36ZM127.574 10.812V23H124.494V10.812H127.574ZM137.371 10.636C138.823 10.636 139.996 11.098 140.891 12.022C141.785 12.9313 142.233 14.2073 142.233 15.85V23H139.153V16.268C139.153 15.3 138.911 14.5593 138.427 14.046C137.943 13.518 137.283 13.254 136.447 13.254C135.596 13.254 134.921 13.518 134.423 14.046C133.939 14.5593 133.697 15.3 133.697 16.268V23H130.617V10.812H133.697V12.33C134.107 11.802 134.628 11.3913 135.259 11.098C135.904 10.79 136.608 10.636 137.371 10.636ZM149.826 23.198C148.828 23.198 147.934 23.022 147.142 22.67C146.35 22.3033 145.719 21.812 145.25 21.196C144.795 20.58 144.546 19.898 144.502 19.15H147.604C147.662 19.6193 147.89 20.008 148.286 20.316C148.696 20.624 149.202 20.778 149.804 20.778C150.39 20.778 150.845 20.6607 151.168 20.426C151.505 20.1913 151.674 19.8907 151.674 19.524C151.674 19.128 151.468 18.8347 151.058 18.644C150.662 18.4387 150.024 18.2187 149.144 17.984C148.234 17.764 147.486 17.5367 146.9 17.302C146.328 17.0673 145.829 16.708 145.404 16.224C144.993 15.74 144.788 15.0873 144.788 14.266C144.788 13.5913 144.978 12.9753 145.36 12.418C145.756 11.8607 146.313 11.4207 147.032 11.098C147.765 10.7753 148.623 10.614 149.606 10.614C151.058 10.614 152.216 10.9807 153.082 11.714C153.947 12.4327 154.424 13.408 154.512 14.64H151.564C151.52 14.156 151.314 13.7747 150.948 13.496C150.596 13.2027 150.119 13.056 149.518 13.056C148.96 13.056 148.528 13.1587 148.22 13.364C147.926 13.5693 147.78 13.8553 147.78 14.222C147.78 14.6327 147.985 14.948 148.396 15.168C148.806 15.3733 149.444 15.586 150.31 15.806C151.19 16.026 151.916 16.2533 152.488 16.488C153.06 16.7227 153.551 17.0893 153.962 17.588C154.387 18.072 154.607 18.7173 154.622 19.524C154.622 20.228 154.424 20.8587 154.028 21.416C153.646 21.9733 153.089 22.4133 152.356 22.736C151.637 23.044 150.794 23.198 149.826 23.198Z" fill="white"/>
<path d="M30 15C30 23.2822 23.2822 30 15 30C6.71777 30 0 23.2822 0 15C0 6.71777 6.71777 0 15 0C23.2822 0 30 6.71777 30 15Z" fill="url(#paint0_linear_51_41)"/>
<path d="M12.75 5.25H13.5C13.9131 5.25 14.25 5.58691 14.25 6V8.25C14.25 8.66309 13.9131 9 13.5 9H12.75C12.3369 9 12 8.66309 12 8.25V6C12 5.58691 12.3369 5.25 12.75 5.25ZM16.5 5.25H17.25C17.6631 5.25 18 5.58691 18 6V8.25C18 8.66309 17.6631 9 17.25 9H16.5C16.0869 9 15.75 8.66309 15.75 8.25V6C15.75 5.58691 16.0869 5.25 16.5 5.25ZM12.75 21H13.5C13.9131 21 14.25 21.3369 14.25 21.75V24C14.25 24.4131 13.9131 24.75 13.5 24.75H12.75C12.3369 24.75 12 24.4131 12 24V21.75C12 21.3369 12.3369 21 12.75 21ZM16.5 21H17.25C17.6631 21 18 21.3369 18 21.75V24C18 24.4131 17.6631 24.75 17.25 24.75H16.5C16.0869 24.75 15.75 24.4131 15.75 24V21.75C15.75 21.3369 16.0869 21 16.5 21ZM9.75 21.75V8.25C9.75 7.83691 10.0869 7.5 10.5 7.5H15.8994C17.707 7.5 19.0752 7.84863 20.0098 8.5459C20.9443 9.24316 21.4102 10.2656 21.4102 11.6104C21.4102 12.3457 21.2227 12.9932 20.8506 13.5527C20.4756 14.1123 19.9541 14.5225 19.2861 14.7832C20.0479 14.9766 20.6484 15.3633 21.0879 15.9492C21.5273 16.5322 21.75 17.2441 21.75 18.0908C21.75 19.5322 21.293 20.625 20.3789 21.3662C19.4648 22.1074 18.1641 22.4854 16.4736 22.5H10.5C10.0869 22.5 9.75 22.1631 9.75 21.75ZM12.75 13.5H16.0225C17.5693 13.4736 18.3457 12.8818 18.3457 11.666C18.3457 10.9863 18.1494 10.4971 17.7568 10.1982C17.3643 9.89941 16.7461 9.75 15.8994 9.75H12.75V13.5ZM12.75 15.75V20.25H16.3828C17.1035 20.25 18.75 19.8984 18.75 18.293C18.75 16.6875 17.9121 15.7705 16.5 15.75H12.75Z" fill="white"/>
<defs>
<linearGradient id="paint0_linear_51_41" x1="7.49923" y1="2.00774" x2="22.5007" y2="27.9922" gradientUnits="userSpaceOnUse">
<stop stop-color="#A071FF"/>
<stop offset="1" stop-color="#3F2E63"/>
</linearGradient>
</defs>
</svg>
